<svg version="1.1" id="Layer_1" xmlns="http://www.w3.org/2000/svg" xmlns:xlink="http://www.w3.org/1999/xlink" x="0px" y="0px"
	 width="100%" viewBox="0 0 2000 1500" enable-background="new 0 0 2000 1500" xml:space="preserve">
<path fill="#000000" opacity="1.000000" stroke="none" 
	d="
M1355.000000,1501.000000 
	C903.333496,1501.000000 452.166931,1501.000000 1.000303,1501.000000 
	C1.000202,1001.000305 1.000202,501.000580 1.000101,1.000638 
	C667.666199,1.000425 1334.332397,1.000425 2000.998901,1.000213 
	C2000.999268,500.999359 2000.999268,1000.998718 2000.999634,1500.999023 
	C1785.833374,1501.000000 1570.666626,1501.000000 1355.000000,1501.000000 
M555.434143,910.084290 
	C550.024170,910.884338 544.614258,911.684387 539.275818,912.473877 
	C543.835083,942.576538 543.518066,972.689026 538.785706,1002.938049 
	C616.586609,992.457886 694.125732,991.071472 771.683594,1003.019226 
	C768.622925,972.509399 767.902893,942.464172 771.453247,912.690796 
	C762.505249,911.788330 753.247192,911.667908 744.383423,909.737366 
	C735.071411,907.709290 726.088501,904.080872 717.089966,900.800354 
	C715.733704,900.305847 714.085144,897.789734 714.240051,896.394043 
	C716.831360,873.060242 723.917358,858.157715 749.121765,851.054565 
	C765.137634,846.540955 781.658508,846.046265 798.145020,845.602783 
	C822.815613,844.939087 847.476624,845.001831 871.776123,850.097534 
	C896.682129,855.320496 907.854126,866.231384 911.675110,888.462280 
	C912.069519,890.756531 911.973206,893.151733 912.519714,895.399170 
	C913.239197,898.357727 912.258789,900.448181 909.636230,901.457214 
	C901.938660,904.418945 894.336182,907.937500 886.359680,909.778137 
	C878.212280,911.658081 869.665588,911.807617 861.312317,912.712708 
	C864.632690,942.654175 865.069946,972.685669 861.315063,1003.123535 
	C952.007874,990.110596 1042.456665,993.887817 1133.109009,1003.340393 
	C1127.979858,972.629333 1127.997192,942.510132 1132.385864,912.334473 
	C1111.552856,910.848328 1093.376953,902.348938 1075.531372,892.940247 
	C1074.149902,892.211792 1072.890015,890.922546 1072.021729,889.599915 
	C1055.898071,865.039124 1042.706177,838.985718 1033.289429,811.146484 
	C1027.675537,794.550049 1023.517273,777.576843 1024.818115,759.779724 
	C1025.246094,753.924744 1026.838379,748.617554 1032.710693,745.251465 
	C1022.675537,741.337402 1015.732849,734.521790 1009.676453,726.613403 
	C999.691711,713.575256 992.369690,699.050232 986.019531,684.010376 
	C970.934509,648.282532 961.470520,610.961609 955.195618,572.805054 
	C951.458191,550.078552 949.193970,527.220459 952.302368,504.163818 
	C952.573364,502.153595 952.338257,500.075073 952.338257,497.974915 
	C913.460388,507.809265 874.418152,509.805878 835.262878,509.813354 
	C796.212708,509.820801 757.169678,508.872192 718.410278,497.871582 
	C718.947632,507.862000 719.907593,517.304565 719.872864,526.743530 
	C719.790466,549.160706 716.070190,571.167480 710.961426,592.917114 
	C701.774231,632.030090 689.543152,670.113281 669.651611,705.243774 
	C660.573792,721.276245 651.173584,737.452393 634.223694,744.842102 
	C635.845459,748.825317 638.042969,752.560181 638.873230,756.577637 
	C641.253113,768.093933 639.091919,779.486206 636.531494,790.696350 
	C629.194031,822.820862 614.137939,851.608948 598.348816,880.216797 
	C591.252380,893.074524 581.020081,900.858521 568.110535,906.147095 
	C564.284668,907.714478 560.225403,908.711975 555.434143,910.084290 
M1255.630859,996.047180 
	C1324.905273,993.638062 1394.085938,994.148071 1463.529663,1002.909668 
	C1456.578125,972.580566 1456.702881,942.442810 1463.592529,913.006592 
	C1451.503662,911.601135 1440.004272,910.920166 1428.768921,908.823547 
	C1404.242432,904.246643 1390.616943,890.536865 1389.558350,866.658508 
	C1388.141602,834.700378 1389.137451,802.661438 1396.308716,771.242004 
	C1398.651611,760.977356 1402.072876,750.892761 1411.223999,746.006653 
	C1407.352051,741.693665 1402.591797,737.820801 1399.768311,732.848328 
	C1396.887695,727.774658 1395.271851,721.737305 1394.206543,715.919678 
	C1388.927979,687.095459 1388.402832,657.901917 1389.433350,628.770935 
	C1390.178101,607.720398 1402.540771,594.644104 1423.422363,591.179077 
	C1434.181641,589.393677 1445.189453,589.106812 1455.320435,588.210449 
	C1453.974487,573.492554 1451.524170,558.445801 1451.523560,543.398987 
	C1451.522949,528.268616 1453.960083,513.138123 1455.255371,498.821960 
	C1360.710571,514.412964 1265.828247,512.592834 1170.633789,498.927063 
	C1176.675537,528.463379 1177.703857,558.572876 1170.056396,589.087524 
	C1175.847168,589.087524 1180.846436,588.867004 1185.819946,589.130005 
	C1199.331421,589.844666 1212.695557,591.421570 1225.021362,597.633850 
	C1239.793579,605.079102 1248.617798,616.555115 1248.065308,633.625916 
	C1247.284424,657.749878 1246.845215,681.929016 1244.728271,705.949585 
	C1243.387207,721.167236 1241.421387,737.228271 1224.863037,745.363037 
	C1234.967651,750.621704 1238.535034,760.105530 1240.786865,769.846130 
	C1248.274658,802.236755 1248.904785,835.244446 1247.644165,868.230042 
	C1247.074463,883.141968 1239.075439,894.785583 1225.700195,901.766235 
	C1219.592041,904.954224 1212.864624,907.493103 1206.122070,908.803650 
	C1195.600830,910.848511 1184.827881,911.597534 1173.777588,912.942383 
	C1180.900635,942.692688 1180.499756,972.847473 1174.094849,1002.062561 
	C1201.258789,1000.045044 1227.963745,998.061584 1255.630859,996.047180 
M1385.446167,353.956940 
	C1439.310303,381.634705 1485.823242,418.586426 1524.551147,465.127869 
	C1582.552734,534.831665 1616.310547,614.937988 1625.805542,705.090759 
	C1630.743408,751.973816 1628.241699,798.596619 1618.027588,844.675293 
	C1595.622070,945.752319 1544.714844,1029.781982 1464.457642,1095.018311 
	C1368.840820,1172.739624 1258.853638,1204.815796 1136.245605,1193.078735 
	C1083.244995,1188.005005 1032.967529,1173.039917 985.264954,1149.385986 
	C942.098206,1127.980957 903.516296,1100.194946 869.236267,1066.371582 
	C867.889771,1065.043091 866.097229,1063.316772 864.466553,1063.266479 
	C854.916199,1062.972290 845.352112,1063.121948 835.285400,1063.121948 
	C948.560486,1192.334473 1145.787476,1259.693237 1339.112671,1191.703735 
	C1529.817017,1124.636108 1664.050903,936.798584 1649.902466,719.116455 
	C1636.788086,517.343628 1493.417725,343.661072 1292.498047,295.464203 
	C1107.315063,251.042297 932.325073,325.204773 835.918335,437.547211 
	C836.032898,437.636200 836.147156,437.802704 836.262085,437.803162 
	C844.759949,437.837769 853.267334,438.088074 861.750061,437.739990 
	C864.241638,437.637756 867.257812,436.447571 869.031799,434.724579 
	C953.693604,352.495392 1054.901001,308.935791 1172.903076,305.575836 
	C1247.488037,303.452118 1318.176880,319.864685 1385.446167,353.956940 
z"/>
<path fill="#FEFEFE" opacity="1.000000" stroke="none" 
	d="
M555.853638,910.027466 
	C560.225403,908.711975 564.284668,907.714478 568.110535,906.147095 
	C581.020081,900.858521 591.252380,893.074524 598.348816,880.216797 
	C614.137939,851.608948 629.194031,822.820862 636.531494,790.696350 
	C639.091919,779.486206 641.253113,768.093933 638.873230,756.577637 
	C638.042969,752.560181 635.845459,748.825317 634.223694,744.842102 
	C651.173584,737.452393 660.573792,721.276245 669.651611,705.243774 
	C689.543152,670.113281 701.774231,632.030090 710.961426,592.917114 
	C716.070190,571.167480 719.790466,549.160706 719.872864,526.743530 
	C719.907593,517.304565 718.947632,507.862000 718.410278,497.871582 
	C757.169678,508.872192 796.212708,509.820801 835.262878,509.813354 
	C874.418152,509.805878 913.460388,507.809265 952.338257,497.974915 
	C952.338257,500.075073 952.573364,502.153595 952.302368,504.163818 
	C949.193970,527.220459 951.458191,550.078552 955.195618,572.805054 
	C961.470520,610.961609 970.934509,648.282532 986.019531,684.010376 
	C992.369690,699.050232 999.691711,713.575256 1009.676453,726.613403 
	C1015.732849,734.521790 1022.675537,741.337402 1032.710693,745.251465 
	C1026.838379,748.617554 1025.246094,753.924744 1024.818115,759.779724 
	C1023.517273,777.576843 1027.675537,794.550049 1033.289429,811.146484 
	C1042.706177,838.985718 1055.898071,865.039124 1072.021729,889.599915 
	C1072.890015,890.922546 1074.149902,892.211792 1075.531372,892.940247 
	C1093.376953,902.348938 1111.552856,910.848328 1132.385864,912.334473 
	C1127.997192,942.510132 1127.979858,972.629333 1133.109009,1003.340393 
	C1042.456665,993.887817 952.007874,990.110596 861.315063,1003.123535 
	C865.069946,972.685669 864.632690,942.654175 861.312317,912.712708 
	C869.665588,911.807617 878.212280,911.658081 886.359680,909.778137 
	C894.336182,907.937500 901.938660,904.418945 909.636230,901.457214 
	C912.258789,900.448181 913.239197,898.357727 912.519714,895.399170 
	C911.973206,893.151733 912.069519,890.756531 911.675110,888.462280 
	C907.854126,866.231384 896.682129,855.320496 871.776123,850.097534 
	C847.476624,845.001831 822.815613,844.939087 798.145020,845.602783 
	C781.658508,846.046265 765.137634,846.540955 749.121765,851.054565 
	C723.917358,858.157715 716.831360,873.060242 714.240051,896.394043 
	C714.085144,897.789734 715.733704,900.305847 717.089966,900.800354 
	C726.088501,904.080872 735.071411,907.709290 744.383423,909.737366 
	C753.247192,911.667908 762.505249,911.788330 771.453247,912.690796 
	C767.902893,942.464172 768.622925,972.509399 771.683594,1003.019226 
	C694.125732,991.071472 616.586609,992.457886 538.785706,1002.938049 
	C543.518066,972.689026 543.835083,942.576538 539.275818,912.473877 
	C544.614258,911.684387 550.024170,910.884338 555.853638,910.027466 
M864.063049,725.471924 
	C859.908020,713.564941 856.246704,701.456909 851.497803,689.791687 
	C840.793579,663.498108 829.527222,637.433533 818.557373,611.247437 
	C817.166565,607.927429 816.181641,604.437500 814.870483,600.624390 
	C810.921265,610.390259 807.237427,619.585693 803.488525,628.754578 
	C792.241943,656.260925 780.717468,683.657349 769.816650,711.299805 
	C764.535828,724.691162 761.465637,738.631165 763.935059,753.305603 
	C765.618164,763.307129 770.724670,770.386414 780.577881,772.963745 
	C787.448364,774.760986 794.600220,775.885315 801.690002,776.359192 
	C817.332764,777.404724 833.012085,777.555115 848.319763,773.279297 
	C857.626404,770.679810 863.460754,764.726074 865.233582,754.994873 
	C866.993286,745.336304 866.703674,735.786316 864.063049,725.471924 
z"/>
<path fill="#FEFEFE" opacity="1.000000" stroke="none" 
	d="
M1255.149902,996.062622 
	C1227.963745,998.061584 1201.258789,1000.045044 1174.094849,1002.062561 
	C1180.499756,972.847473 1180.900635,942.692688 1173.777588,912.942383 
	C1184.827881,911.597534 1195.600830,910.848511 1206.122070,908.803650 
	C1212.864624,907.493103 1219.592041,904.954224 1225.700195,901.766235 
	C1239.075439,894.785583 1247.074463,883.141968 1247.644165,868.230042 
	C1248.904785,835.244446 1248.274658,802.236755 1240.786865,769.846130 
	C1238.535034,760.105530 1234.967651,750.621704 1224.863037,745.363037 
	C1241.421387,737.228271 1243.387207,721.167236 1244.728271,705.949585 
	C1246.845215,681.929016 1247.284424,657.749878 1248.065308,633.625916 
	C1248.617798,616.555115 1239.793579,605.079102 1225.021362,597.633850 
	C1212.695557,591.421570 1199.331421,589.844666 1185.819946,589.130005 
	C1180.846436,588.867004 1175.847168,589.087524 1170.056396,589.087524 
	C1177.703857,558.572876 1176.675537,528.463379 1170.633789,498.927063 
	C1265.828247,512.592834 1360.710571,514.412964 1455.255371,498.821960 
	C1453.960083,513.138123 1451.522949,528.268616 1451.523560,543.398987 
	C1451.524170,558.445801 1453.974487,573.492554 1455.320435,588.210449 
	C1445.189453,589.106812 1434.181641,589.393677 1423.422363,591.179077 
	C1402.540771,594.644104 1390.178101,607.720398 1389.433350,628.770935 
	C1388.402832,657.901917 1388.927979,687.095459 1394.206543,715.919678 
	C1395.271851,721.737305 1396.887695,727.774658 1399.768311,732.848328 
	C1402.591797,737.820801 1407.352051,741.693665 1411.223999,746.006653 
	C1402.072876,750.892761 1398.651611,760.977356 1396.308716,771.242004 
	C1389.137451,802.661438 1388.141602,834.700378 1389.558350,866.658508 
	C1390.616943,890.536865 1404.242432,904.246643 1428.768921,908.823547 
	C1440.004272,910.920166 1451.503662,911.601135 1463.592529,913.006592 
	C1456.702881,942.442810 1456.578125,972.580566 1463.529663,1002.909668 
	C1394.085938,994.148071 1324.905273,993.638062 1255.149902,996.062622 
z"/>
<path fill="#FCFCFC" opacity="1.000000" stroke="none" 
	d="
M1385.113037,353.788513 
	C1318.176880,319.864685 1247.488037,303.452118 1172.903076,305.575836 
	C1054.901001,308.935791 953.693604,352.495392 869.031799,434.724579 
	C867.257812,436.447571 864.241638,437.637756 861.750061,437.739990 
	C853.267334,438.088074 844.759949,437.837769 836.262085,437.803162 
	C836.147156,437.802704 836.032898,437.636200 835.918335,437.547211 
	C932.325073,325.204773 1107.315063,251.042297 1292.498047,295.464203 
	C1493.417725,343.661072 1636.788086,517.343628 1649.902466,719.116455 
	C1664.050903,936.798584 1529.817017,1124.636108 1339.112671,1191.703735 
	C1145.787476,1259.693237 948.560486,1192.334473 835.285400,1063.121948 
	C845.352112,1063.121948 854.916199,1062.972290 864.466553,1063.266479 
	C866.097229,1063.316772 867.889771,1065.043091 869.236267,1066.371582 
	C903.516296,1100.194946 942.098206,1127.980957 985.264954,1149.385986 
	C1032.967529,1173.039917 1083.244995,1188.005005 1136.245605,1193.078735 
	C1258.853638,1204.815796 1368.840820,1172.739624 1464.457642,1095.018311 
	C1544.714844,1029.781982 1595.622070,945.752319 1618.027588,844.675293 
	C1628.241699,798.596619 1630.743408,751.973816 1625.805542,705.090759 
	C1616.310547,614.937988 1582.552734,534.831665 1524.551147,465.127869 
	C1485.823242,418.586426 1439.310303,381.634705 1385.113037,353.788513 
z"/>
<path fill="#010101" opacity="1.000000" stroke="none" 
	d="
M864.141968,725.883667 
	C866.703674,735.786316 866.993286,745.336304 865.233582,754.994873 
	C863.460754,764.726074 857.626404,770.679810 848.319763,773.279297 
	C833.012085,777.555115 817.332764,777.404724 801.690002,776.359192 
	C794.600220,775.885315 787.448364,774.760986 780.577881,772.963745 
	C770.724670,770.386414 765.618164,763.307129 763.935059,753.305603 
	C761.465637,738.631165 764.535828,724.691162 769.816650,711.299805 
	C780.717468,683.657349 792.241943,656.260925 803.488525,628.754578 
	C807.237427,619.585693 810.921265,610.390259 814.870483,600.624390 
	C816.181641,604.437500 817.166565,607.927429 818.557373,611.247437 
	C829.527222,637.433533 840.793579,663.498108 851.497803,689.791687 
	C856.246704,701.456909 859.908020,713.564941 864.141968,725.883667 
z"/>
</svg>