<svg xmlns="http://www.w3.org/2000/svg" version="1.1" xmlns:xlink="http://www.w3.org/1999/xlink" xmlns:svgjs="http://svgjs.dev/svgjs" width="2000" height="1284" viewBox="0 0 2000 1284"><g transform="matrix(1,0,0,1,-1.3174278025467174,-2.070967741935533)"><svg viewBox="0 0 386 248" data-background-color="#60777f" preserveAspectRatio="xMidYMid meet" height="1284" width="2000" xmlns="http://www.w3.org/2000/svg" xmlns:xlink="http://www.w3.org/1999/xlink"><g id="tight-bounds" transform="matrix(1,0,0,1,0.254263565891506,0.4000000000000057)"><svg viewBox="0 0 385.491472868217 247.2" height="247.2" width="385.491472868217"><g><svg viewBox="0 0 385.49147286821704 247.20000000000002" height="247.2" width="385.491472868217"><g><svg viewBox="0 0 385.49147286821704 247.20000000000002" height="247.20000000000002" width="385.49147286821704"><g id="textblocktransform"><svg viewBox="0 0 385.49147286821704 247.20000000000002" height="247.20000000000002" width="385.49147286821704" id="textblock"><g><svg viewBox="0 0 385.49147286821704 247.20000000000002" height="247.20000000000002" width="385.49147286821704"><g transform="matrix(1,0,0,1,0,0)"><svg width="385.49147286821704" viewBox="-1.17 -36.91 58.93 37.79" height="247.20000000000002" data-palette-color="#ffffff"><path d="M-1.17 0L-1.17 0Q0.34-5.59 2.17-11.35 4-17.11 6.73-25.13 9.45-33.15 10.45-36.23L10.45-36.23Q10.74-36.72 10.84-36.82L10.84-36.82 14.94-36.82Q16.38-36.82 19.19-36.87 22-36.91 23.44-36.91L23.44-36.91 27.54-36.91Q27.91-36.91 28.15-36.9 28.39-36.89 28.74-36.84 29.08-36.79 29.28-36.69 29.49-36.6 29.64-36.4 29.79-36.21 29.79-35.94L29.79-35.94 41.04-0.27Q41.04 0.22 40.69 0.4 40.33 0.59 39.36 0.59L39.36 0.59 37.11 0.59Q36.13 0.59 34.2 0.61 32.28 0.63 31.3 0.63L31.3 0.63Q31.01 0.63 30.11 0.67 29.22 0.71 28.61 0.7 28 0.68 27.26 0.62 26.51 0.56 26.06 0.35 25.61 0.15 25.49-0.2L25.49-0.2 25.49-1.81Q25.24-3.03 24.63-4.05 24.02-5.08 23.34-5.08L23.34-5.08 14.94-5.08 13.67 0.1Q13.4 0.68 10.94 0.68L10.94 0.68 8.98 0.68Q7.93 0.68 5.86 0.76 3.78 0.83 2.73 0.83L2.73 0.83 2.05 0.83Q1.66 0.83 0.82 0.85-0.02 0.88-0.49 0.88L-0.49 0.88Q-0.68 0.68-1.17 0ZM17.72-23.29L15.77-14.82 16.46-13.67 18.07-13.67Q20.02-13.67 21.64-13.9 23.27-14.14 23.27-14.65L23.27-14.65 20.12-28.71Q19.68-28.71 18.93-27.05 18.19-25.39 17.72-23.29L17.72-23.29ZM57.76 0.63L41.99 0.63Q42.09-6.47 42.33-9.77L42.33-9.77Q42.33-20.02 42.62-30.57L42.62-30.57Q42.53-32.62 42.53-33.59L42.53-33.59 42.53-34.33Q42.43-35.4 42.43-36.08L42.43-36.08Q42.43-36.55 42.87-36.91L42.87-36.91Q46.87-36.62 55.08-36.62L55.08-36.62Q57.03-36.62 57.76-36.72L57.76-36.72 57.76 0.63Z" opacity="1" transform="matrix(1,0,0,1,0,0)" fill="#ffffff" class="wordmark-text-0" data-fill-palette-color="primary" id="text-0"></path></svg></g></svg></g></svg></g></svg></g></svg></g><defs></defs></svg><rect width="385.491472868217" height="247.2" fill="none" stroke="none" visibility="hidden"></rect></g></svg></g></svg>